<svg version="1.1" xmlns="http://www.w3.org/2000/svg" xmlns:xlink="http://www.w3.org/1999/xlink" width="869" height="574"><defs/><g><g transform="translate(-22,-14) scale(1,1)"><path fill="#ffffff" stroke="none" d="M 159.82072727272728 281.68 C 159.82072727272728 276.886167936 163.70656959767274 273 168.5 273 C 173.29343040232726 273 177.17927272727272 276.886167936 177.17927272727272 281.68 C 177.17927272727272 286.473832064 173.29343040232726 290.36 168.5 290.36 C 163.70656959767274 290.36 159.82072727272728 286.473832064 159.82072727272728 281.68 Z"/></g><g transform="translate(-22,-14) scale(1,1)"><path fill="none" stroke="#000000" d="M 159.82072727272728 281.68 C 159.82072727272728 276.886167936 163.70656959767274 273 168.5 273 C 173.29343040232726 273 177.17927272727272 276.886167936 177.17927272727272 281.68 C 177.17927272727272 286.473832064 173.29343040232726 290.36 168.5 290.36 C 163.70656959767274 290.36 159.82072727272728 286.473832064 159.82072727272728 281.68 Z" stroke-miterlimit="10"/></g><g transform="translate(-22,-14) scale(1,1)"><path fill="none" stroke="#000000" d="M 168.5 290.36 L 168.5 307.64" stroke-miterlimit="10"/></g><g transform="translate(-22,-14) scale(1,1)"><path fill="none" stroke="#000000" d="M 159.31018181818183 296.84 L 177.68981818181817 296.84" stroke-miterlimit="10"/></g><g transform="translate(-22,-14) scale(1,1)"><path fill="none" stroke="#000000" d="M 168.5 307.64 L 155.73636363636365 325" stroke-miterlimit="10"/></g><g transform="translate(-22,-14) scale(1,1)"><path fill="none" stroke="#000000" d="M 168.5 307.64 L 181.26363636363635 325" stroke-miterlimit="10"/></g><g transform="translate(-22,-14) scale(1,1)"><g><path fill="none" stroke="none"/><text fill="#000000" stroke="none" font-family="Arial" font-size="13px" font-style="normal" font-weight="bold" text-decoration="none" x="155" y="345.5">User</text></g></g><g transform="translate(-22,-14) scale(1,1)"><path fill="#C0C0C0" stroke="none" d="M 199 176 C 199 166.6111584 230.34006399999998 159 269 159 C 307.659936 159 339 166.6111584 339 176 C 339 185.3888416 307.659936 193 269 193 C 230.34006399999998 193 199 185.3888416 199 176 Z" opacity="0.2"/></g><g transform="translate(-22,-14) scale(1,1)"><path fill="#ffffff" stroke="none" d="M 192 169 C 192 159.6111584 223.34006399999998 152 262 152 C 300.659936 152 332 159.6111584 332 169 C 332 178.3888416 300.659936 186 262 186 C 223.34006399999998 186 192 178.3888416 192 169 Z"/></g><g transform="translate(-22,-14) scale(1,1)"><path fill="none" stroke="#000000" d="M 192 169 C 192 159.6111584 223.34006399999998 152 262 152 C 300.659936 152 332 159.6111584 332 169 C 332 178.3888416 300.659936 186 262 186 C 223.34006399999998 186 192 178.3888416 192 169 Z" stroke-miterlimit="10"/></g><g transform="translate(-22,-14) scale(1,1)"><g><path fill="none" stroke="none"/><text fill="#000000" stroke="none" font-family="Arial" font-size="13px" font-style="normal" font-weight="bold" text-decoration="none" x="220.5" y="176">Authentication</text></g></g><g transform="translate(-22,-14) scale(1,1)"><path fill="none" stroke="#000000" d="M 194 272 L 250 187" stroke-miterlimit="10"/></g><g transform="translate(-22,-14) scale(1,1)"><path fill="#C0C0C0" stroke="none" d="M 79 232 C 79 222.6111584 105.63905439999999 215 138.5 215 C 171.3609456 215 198 222.6111584 198 232 C 198 241.3888416 171.3609456 249 138.5 249 C 105.63905439999999 249 79 241.3888416 79 232 Z" opacity="0.2"/></g><g transform="translate(-22,-14) scale(1,1)"><path fill="#ffffff" stroke="none" d="M 72 225 C 72 215.6111584 98.63905439999999 208 131.5 208 C 164.3609456 208 191 215.6111584 191 225 C 191 234.3888416 164.3609456 242 131.5 242 C 98.63905439999999 242 72 234.3888416 72 225 Z"/></g><g transform="translate(-22,-14) scale(1,1)"><path fill="none" stroke="#000000" d="M 72 225 C 72 215.6111584 98.63905439999999 208 131.5 208 C 164.3609456 208 191 215.6111584 191 225 C 191 234.3888416 164.3609456 242 131.5 242 C 98.63905439999999 242 72 234.3888416 72 225 Z" stroke-miterlimit="10"/></g><g transform="translate(-22,-14) scale(1,1)"><g><path fill="none" stroke="none"/><text fill="#000000" stroke="none" font-family="Arial" font-size="13px" font-style="normal" font-weight="bold" text-decoration="none" x="97" y="232">View Profile</text></g></g><g transform="translate(-22,-14) scale(1,1)"><path fill="none" stroke="#000000" d="M 151 271 L 139 243" stroke-miterlimit="10"/></g><g transform="translate(-22,-14) scale(1,1)"><path fill="#C0C0C0" stroke="none" d="M 263 48 C 263 38.6111584 296.1309248 31 337 31 C 377.8690752 31 411 38.6111584 411 48 C 411 57.3888416 377.8690752 65 337 65 C 296.1309248 65 263 57.3888416 263 48 Z" opacity="0.2"/></g><g transform="translate(-22,-14) scale(1,1)"><path fill="#ffffff" stroke="none" d="M 256 41 C 256 31.6111584 289.1309248 24 330 24 C 370.8690752 24 404 31.6111584 404 41 C 404 50.3888416 370.8690752 58 330 58 C 289.1309248 58 256 50.3888416 256 41 Z"/></g><g transform="translate(-22,-14) scale(1,1)"><path fill="none" stroke="#000000" d="M 256 41 C 256 31.6111584 289.1309248 24 330 24 C 370.8690752 24 404 31.6111584 404 41 C 404 50.3888416 370.8690752 58 330 58 C 289.1309248 58 256 50.3888416 256 41 Z" stroke-miterlimit="10"/></g><g transform="translate(-22,-14) scale(1,1)"><g><path fill="none" stroke="none"/><text fill="#000000" stroke="none" font-family="Arial" font-size="13px" font-style="normal" font-weight="bold" text-decoration="none" x="286" y="48">Facebook login</text></g></g><g transform="translate(-22,-14) scale(1,1)"><path fill="none" stroke="#000000" d="M 291 79 L 311 59" stroke-miterlimit="10"/></g><g transform="translate(-22,-14) scale(1,1)"><path fill="#C0C0C0" stroke="none" d="M 407 176 C 407 166.6111584 433.6390544 159 466.5 159 C 499.3609456 159 526 166.6111584 526 176 C 526 185.3888416 499.3609456 193 466.5 193 C 433.6390544 193 407 185.3888416 407 176 Z" opacity="0.2"/></g><g transform="translate(-22,-14) scale(1,1)"><path fill="#ffffff" stroke="none" d="M 400 169 C 400 159.6111584 426.6390544 152 459.5 152 C 492.3609456 152 519 159.6111584 519 169 C 519 178.3888416 492.3609456 186 459.5 186 C 426.6390544 186 400 178.3888416 400 169 Z"/></g><g transform="translate(-22,-14) scale(1,1)"><path fill="none" stroke="#000000" d="M 400 169 C 400 159.6111584 426.6390544 152 459.5 152 C 492.3609456 152 519 159.6111584 519 169 C 519 178.3888416 492.3609456 186 459.5 186 C 426.6390544 186 400 178.3888416 400 169 Z" stroke-miterlimit="10"/></g><g transform="translate(-22,-14) scale(1,1)"><g><path fill="none" stroke="none"/><text fill="#000000" stroke="none" font-family="Arial" font-size="13px" font-style="normal" font-weight="bold" text-decoration="none" x="425" y="176">Registration</text></g></g><g transform="translate(-22,-14) scale(1,1)"><path fill="none" stroke="#000000" d="M 333 169 L 399 169" stroke-miterlimit="10"/></g><g transform="translate(-22,-14) scale(1,1)"><path fill="#C0C0C0" stroke="none" d="M 231 104 C 231 94.6111584 252.7141872 87 279.5 87 C 306.28581280000003 87 328 94.6111584 328 104 C 328 113.3888416 306.28581280000003 121 279.5 121 C 252.7141872 121 231 113.3888416 231 104 Z" opacity="0.2"/></g><g transform="translate(-22,-14) scale(1,1)"><path fill="#ffffff" stroke="none" d="M 224 97 C 224 87.6111584 245.7141872 80 272.5 80 C 299.28581280000003 80 321 87.6111584 321 97 C 321 106.3888416 299.28581280000003 114 272.5 114 C 245.7141872 114 224 106.3888416 224 97 Z"/></g><g transform="translate(-22,-14) scale(1,1)"><path fill="none" stroke="#000000" d="M 224 97 C 224 87.6111584 245.7141872 80 272.5 80 C 299.28581280000003 80 321 87.6111584 321 97 C 321 106.3888416 299.28581280000003 114 272.5 114 C 245.7141872 114 224 106.3888416 224 97 Z" stroke-miterlimit="10"/></g><g transform="translate(-22,-14) scale(1,1)"><g><path fill="none" stroke="none"/><text fill="#000000" stroke="none" font-family="Arial" font-size="13px" font-style="normal" font-weight="bold" text-decoration="none" x="257" y="104">Login</text></g></g><g transform="translate(-22,-14) scale(1,1)"><path fill="none" stroke="#000000" d="M 265 151 L 270 115" stroke-miterlimit="10"/></g><g transform="translate(-22,-14) scale(1,1)"><path fill="#C0C0C0" stroke="none" d="M 359 120 C 359 110.6111584 380.71418719999997 103 407.5 103 C 434.28581280000003 103 456 110.6111584 456 120 C 456 129.3888416 434.28581280000003 137 407.5 137 C 380.71418719999997 137 359 129.3888416 359 120 Z" opacity="0.2"/></g><g transform="translate(-22,-14) scale(1,1)"><path fill="#ffffff" stroke="none" d="M 352 113 C 352 103.6111584 373.71418719999997 96 400.5 96 C 427.28581280000003 96 449 103.6111584 449 113 C 449 122.3888416 427.28581280000003 130 400.5 130 C 373.71418719999997 130 352 122.3888416 352 113 Z"/></g><g transform="translate(-22,-14) scale(1,1)"><path fill="none" stroke="#000000" d="M 352 113 C 352 103.6111584 373.71418719999997 96 400.5 96 C 427.28581280000003 96 449 103.6111584 449 113 C 449 122.3888416 427.28581280000003 130 400.5 130 C 373.71418719999997 130 352 122.3888416 352 113 Z" stroke-miterlimit="10"/></g><g transform="translate(-22,-14) scale(1,1)"><g><path fill="none" stroke="none"/><text fill="#000000" stroke="none" font-family="Arial" font-size="13px" font-style="normal" font-weight="bold" text-decoration="none" x="381" y="120">Logout</text></g></g><g transform="translate(-22,-14) scale(1,1)"><path fill="none" stroke="#000000" d="M 306 151 L 356 131" stroke-miterlimit="10"/></g><g transform="translate(-22,-14) scale(1,1)"><path fill="#C0C0C0" stroke="none" d="M 303 312 C 303 302.6111584 329.862912 295 363 295 C 396.137088 295 423 302.6111584 423 312 C 423 321.3888416 396.137088 329 363 329 C 329.862912 329 303 321.3888416 303 312 Z" opacity="0.2"/></g><g transform="translate(-22,-14) scale(1,1)"><path fill="#ffffff" stroke="none" d="M 296 305 C 296 295.6111584 322.862912 288 356 288 C 389.137088 288 416 295.6111584 416 305 C 416 314.3888416 389.137088 322 356 322 C 322.862912 322 296 314.3888416 296 305 Z"/></g><g transform="translate(-22,-14) scale(1,1)"><path fill="none" stroke="#000000" d="M 296 305 C 296 295.6111584 322.862912 288 356 288 C 389.137088 288 416 295.6111584 416 305 C 416 314.3888416 389.137088 322 356 322 C 322.862912 322 296 314.3888416 296 305 Z" stroke-miterlimit="10"/></g><g transform="translate(-22,-14) scale(1,1)"><g><path fill="none" stroke="none"/><text fill="#000000" stroke="none" font-family="Arial" font-size="13px" font-style="normal" font-weight="bold" text-decoration="none" x="320.5" y="312">View Topics</text></g></g><g transform="translate(-22,-14) scale(1,1)"><path fill="none" stroke="#000000" d="M 194 310 L 295 307" stroke-miterlimit="10"/></g><g transform="translate(-22,-14) scale(1,1)"><path fill="#C0C0C0" stroke="none" d="M 359 432 C 359 422.6111584 395.7126464 415 441 415 C 486.2873536 415 523 422.6111584 523 432 C 523 441.3888416 486.2873536 449 441 449 C 395.7126464 449 359 441.3888416 359 432 Z" opacity="0.2"/></g><g transform="translate(-22,-14) scale(1,1)"><path fill="#ffffff" stroke="none" d="M 352 425 C 352 415.6111584 388.7126464 408 434 408 C 479.2873536 408 516 415.6111584 516 425 C 516 434.3888416 479.2873536 442 434 442 C 388.7126464 442 352 434.3888416 352 425 Z"/></g><g transform="translate(-22,-14) scale(1,1)"><path fill="none" stroke="#000000" d="M 352 425 C 352 415.6111584 388.7126464 408 434 408 C 479.2873536 408 516 415.6111584 516 425 C 516 434.3888416 479.2873536 442 434 442 C 388.7126464 442 352 434.3888416 352 425 Z" stroke-miterlimit="10"/></g><g transform="translate(-22,-14) scale(1,1)"><g><path fill="none" stroke="none"/><text fill="#000000" stroke="none" font-family="Arial" font-size="13px" font-style="normal" font-weight="bold" text-decoration="none" x="383.5" y="432">Create new Topic</text></g></g><g transform="translate(-22,-14) scale(1,1)"><path fill="none" stroke="#000000" d="M 368 323 L 422 407" stroke-miterlimit="10"/></g><g transform="translate(-22,-14) scale(1,1)"><path fill="#C0C0C0" stroke="none" d="M 487 296 C 487 286.6111584 513.1913392 279 545.5 279 C 577.8086608 279 604 286.6111584 604 296 C 604 305.3888416 577.8086608 313 545.5 313 C 513.1913392 313 487 305.3888416 487 296 Z" opacity="0.2"/></g><g transform="translate(-22,-14) scale(1,1)"><path fill="#ffffff" stroke="none" d="M 480 289 C 480 279.6111584 506.1913392 272 538.5 272 C 570.8086608 272 597 279.6111584 597 289 C 597 298.3888416 570.8086608 306 538.5 306 C 506.1913392 306 480 298.3888416 480 289 Z"/></g><g transform="translate(-22,-14) scale(1,1)"><path fill="none" stroke="#000000" d="M 480 289 C 480 279.6111584 506.1913392 272 538.5 272 C 570.8086608 272 597 279.6111584 597 289 C 597 298.3888416 570.8086608 306 538.5 306 C 506.1913392 306 480 298.3888416 480 289 Z" stroke-miterlimit="10"/></g><g transform="translate(-22,-14) scale(1,1)"><g><path fill="none" stroke="none"/><text fill="#000000" stroke="none" font-family="Arial" font-size="13px" font-style="normal" font-weight="bold" text-decoration="none" x="504.5" y="296">Show Topic</text></g></g><g transform="translate(-22,-14) scale(1,1)"><path fill="#C0C0C0" stroke="none" d="M 527 336 C 527 326.6111584 559.9070672 319 600.5 319 C 641.0929328 319 674 326.6111584 674 336 C 674 345.3888416 641.0929328 353 600.5 353 C 559.9070672 353 527 345.3888416 527 336 Z" opacity="0.2"/></g><g transform="translate(-22,-14) scale(1,1)"><path fill="#ffffff" stroke="none" d="M 520 329 C 520 319.6111584 552.9070672 312 593.5 312 C 634.0929328 312 667 319.6111584 667 329 C 667 338.3888416 634.0929328 346 593.5 346 C 552.9070672 346 520 338.3888416 520 329 Z"/></g><g transform="translate(-22,-14) scale(1,1)"><path fill="none" stroke="#000000" d="M 520 329 C 520 319.6111584 552.9070672 312 593.5 312 C 634.0929328 312 667 319.6111584 667 329 C 667 338.3888416 634.0929328 346 593.5 346 C 552.9070672 346 520 338.3888416 520 329 Z" stroke-miterlimit="10"/></g><g transform="translate(-22,-14) scale(1,1)"><g><path fill="none" stroke="none"/><text fill="#000000" stroke="none" font-family="Arial" font-size="13px" font-style="normal" font-weight="bold" text-decoration="none" x="550" y="336">Show Subtopic</text></g></g><g transform="translate(-22,-14) scale(1,1)"><path fill="#C0C0C0" stroke="none" d="M 567 400 C 567 390.6111584 600.57864 383 642 383 C 683.42136 383 717 390.6111584 717 400 C 717 409.3888416 683.42136 417 642 417 C 600.57864 417 567 409.3888416 567 400 Z" opacity="0.2"/></g><g transform="translate(-22,-14) scale(1,1)"><path fill="#ffffff" stroke="none" d="M 560 393 C 560 383.6111584 593.57864 376 635 376 C 676.42136 376 710 383.6111584 710 393 C 710 402.3888416 676.42136 410 635 410 C 593.57864 410 560 402.3888416 560 393 Z"/></g><g transform="translate(-22,-14) scale(1,1)"><path fill="none" stroke="#000000" d="M 560 393 C 560 383.6111584 593.57864 376 635 376 C 676.42136 376 710 383.6111584 710 393 C 710 402.3888416 676.42136 410 635 410 C 593.57864 410 560 402.3888416 560 393 Z" stroke-miterlimit="10"/></g><g transform="translate(-22,-14) scale(1,1)"><g><path fill="none" stroke="none"/><text fill="#000000" stroke="none" font-family="Arial" font-size="13px" font-style="normal" font-weight="bold" text-decoration="none" x="590" y="400">Show Schedule</text></g></g><g transform="translate(-22,-14) scale(1,1)"><path fill="none" stroke="#000000" d="M 417 300 L 479 294" stroke-miterlimit="10"/></g><g transform="translate(-22,-14) scale(1,1)"><path fill="none" stroke="#000000" d="M 417 311 L 519 322" stroke-miterlimit="10"/></g><g transform="translate(-22,-14) scale(1,1)"><path fill="none" stroke="#000000" d="M 413 323 L 578 375" stroke-miterlimit="10"/></g><g transform="translate(-22,-14) scale(1,1)"><path fill="#C0C0C0" stroke="none" d="M 567 456 C 567 446.6111584 599.9070672 439 640.5 439 C 681.0929328 439 714 446.6111584 714 456 C 714 465.3888416 681.0929328 473 640.5 473 C 599.9070672 473 567 465.3888416 567 456 Z" opacity="0.2"/></g><g transform="translate(-22,-14) scale(1,1)"><path fill="#ffffff" stroke="none" d="M 560 449 C 560 439.6111584 592.9070672 432 633.5 432 C 674.0929328 432 707 439.6111584 707 449 C 707 458.3888416 674.0929328 466 633.5 466 C 592.9070672 466 560 458.3888416 560 449 Z"/></g><g transform="translate(-22,-14) scale(1,1)"><path fill="none" stroke="#000000" d="M 560 449 C 560 439.6111584 592.9070672 432 633.5 432 C 674.0929328 432 707 439.6111584 707 449 C 707 458.3888416 674.0929328 466 633.5 466 C 592.9070672 466 560 458.3888416 560 449 Z" stroke-miterlimit="10"/></g><g transform="translate(-22,-14) scale(1,1)"><g><path fill="none" stroke="none"/><text fill="#000000" stroke="none" font-family="Arial" font-size="13px" font-style="normal" font-weight="bold" text-decoration="none" x="589.5" y="456">Show Progress</text></g></g><g transform="translate(-22,-14) scale(1,1)"><path fill="none" stroke="#000000" d="M 391 323 L 598 431" stroke-miterlimit="10"/></g><g transform="translate(-22,-14) scale(1,1)"><path fill="#ffffff" stroke="none" d="M 847.8207272727273 265.68 C 847.8207272727273 260.886167936 851.7065695976727 257 856.5 257 C 861.2934304023273 257 865.1792727272727 260.886167936 865.1792727272727 265.68 C 865.1792727272727 270.473832064 861.2934304023273 274.36 856.5 274.36 C 851.7065695976727 274.36 847.8207272727273 270.473832064 847.8207272727273 265.68 Z"/></g><g transform="translate(-22,-14) scale(1,1)"><path fill="none" stroke="#000000" d="M 847.8207272727273 265.68 C 847.8207272727273 260.886167936 851.7065695976727 257 856.5 257 C 861.2934304023273 257 865.1792727272727 260.886167936 865.1792727272727 265.68 C 865.1792727272727 270.473832064 861.2934304023273 274.36 856.5 274.36 C 851.7065695976727 274.36 847.8207272727273 270.473832064 847.8207272727273 265.68 Z" stroke-miterlimit="10"/></g><g transform="translate(-22,-14) scale(1,1)"><path fill="none" stroke="#000000" d="M 856.5 274.36 L 856.5 291.64" stroke-miterlimit="10"/></g><g transform="translate(-22,-14) scale(1,1)"><path fill="none" stroke="#000000" d="M 847.3101818181818 280.84 L 865.6898181818182 280.84" stroke-miterlimit="10"/></g><g transform="translate(-22,-14) scale(1,1)"><path fill="none" stroke="#000000" d="M 856.5 291.64 L 843.7363636363636 309" stroke-miterlimit="10"/></g><g transform="translate(-22,-14) scale(1,1)"><path fill="none" stroke="#000000" d="M 856.5 291.64 L 869.2636363636364 309" stroke-miterlimit="10"/></g><g transform="translate(-22,-14) scale(1,1)"><g><path fill="none" stroke="none"/><text fill="#000000" stroke="none" font-family="Arial" font-size="13px" font-style="normal" font-weight="bold" text-decoration="none" x="850" y="329.5">UI</text></g></g><g transform="translate(-22,-14) scale(1,1)"><path fill="#C0C0C0" stroke="none" d="M 487 248 C 487 238.6111584 513.6390544 231 546.5 231 C 579.3609456 231 606 238.6111584 606 248 C 606 257.3888416 579.3609456 265 546.5 265 C 513.6390544 265 487 257.3888416 487 248 Z" opacity="0.2"/></g><g transform="translate(-22,-14) scale(1,1)"><path fill="#ffffff" stroke="none" d="M 480 241 C 480 231.6111584 506.6390544 224 539.5 224 C 572.3609456 224 599 231.6111584 599 241 C 599 250.3888416 572.3609456 258 539.5 258 C 506.6390544 258 480 250.3888416 480 241 Z"/></g><g transform="translate(-22,-14) scale(1,1)"><path fill="none" stroke="#000000" d="M 480 241 C 480 231.6111584 506.6390544 224 539.5 224 C 572.3609456 224 599 231.6111584 599 241 C 599 250.3888416 572.3609456 258 539.5 258 C 506.6390544 258 480 250.3888416 480 241 Z" stroke-miterlimit="10"/></g><g transform="translate(-22,-14) scale(1,1)"><g><path fill="none" stroke="none"/><text fill="#000000" stroke="none" font-family="Arial" font-size="13px" font-style="normal" font-weight="bold" text-decoration="none" x="504.5" y="248">Study Topic</text></g></g><g transform="translate(-22,-14) scale(1,1)"><path fill="none" stroke="#000000" d="M 488 259 L 407 287" stroke-miterlimit="10"/></g><g transform="translate(-22,-14) scale(1,1)"><path fill="#C0C0C0" stroke="none" d="M 655 200 C 655 190.6111584 695.7420832 183 746 183 C 796.2579168 183 837 190.6111584 837 200 C 837 209.3888416 796.2579168 217 746 217 C 695.7420832 217 655 209.3888416 655 200 Z" opacity="0.2"/></g><g transform="translate(-22,-14) scale(1,1)"><path fill="#ffffff" stroke="none" d="M 648 193 C 648 183.6111584 688.7420832 176 739 176 C 789.2579168 176 830 183.6111584 830 193 C 830 202.3888416 789.2579168 210 739 210 C 688.7420832 210 648 202.3888416 648 193 Z"/></g><g transform="translate(-22,-14) scale(1,1)"><path fill="none" stroke="#000000" d="M 648 193 C 648 183.6111584 688.7420832 176 739 176 C 789.2579168 176 830 183.6111584 830 193 C 830 202.3888416 789.2579168 210 739 210 C 688.7420832 210 648 202.3888416 648 193 Z" stroke-miterlimit="10"/></g><g transform="translate(-22,-14) scale(1,1)"><g><path fill="none" stroke="none"/><text fill="#000000" stroke="none" font-family="Arial" font-size="13px" font-style="normal" font-weight="bold" text-decoration="none" x="684" y="200">Add Understanding</text></g></g><g transform="translate(-22,-14) scale(1,1)"><path fill="none" stroke="#000000" d="M 600 226 L 664 211" stroke-miterlimit="10"/></g><g transform="translate(-22,-14) scale(1,1)"><path fill="#ffffff" stroke="none" d="M 360 528 L 448 528 L 458 538 L 458 577 L 360 577 L 360 528"/></g><g transform="translate(-22,-14) scale(1,1)"><path fill="none" stroke="#000000" d="M 360 528 L 448 528 L 458 538 L 458 577 L 360 577 L 360 528 L 360 528" stroke-miterlimit="10"/></g><g transform="translate(-22,-14) scale(1,1)"><path fill="none" stroke="#000000" d="M 448 528 L 448 538 L 458 538 L 448 528" stroke-miterlimit="10"/></g><g transform="translate(-22,-14) scale(1,1)"><g><path fill="none" stroke="none"/><text fill="#000000" stroke="none" font-family="Arial" font-size="13px" font-style="normal" font-weight="normal" text-decoration="none" x="365" y="546">Study new</text><text fill="#000000" stroke="none" font-family="Arial" font-size="13px" font-style="normal" font-weight="normal" text-decoration="none" x="365" y="559">topic right</text><text fill="#000000" stroke="none" font-family="Arial" font-size="13px" font-style="normal" font-weight="normal" text-decoration="none" x="365" y="572">away</text></g></g><g transform="translate(-22,-14) scale(1,1)"><path fill="none" stroke="#000000" d="M 430 443 L 414 527" stroke-miterlimit="10" stroke-dasharray="3"/></g><g transform="translate(-22,-14) scale(1,1)"><path fill="#C0C0C0" stroke="none" d="M 199 440 C 199 430.6111584 233.25021279999999 423 275.5 423 C 317.7497872 423 352 430.6111584 352 440 C 352 449.3888416 317.7497872 457 275.5 457 C 233.25021279999999 457 199 449.3888416 199 440 Z" opacity="0.2"/></g><g transform="translate(-22,-14) scale(1,1)"><path fill="#ffffff" stroke="none" d="M 192 433 C 192 423.6111584 226.25021279999999 416 268.5 416 C 310.7497872 416 345 423.6111584 345 433 C 345 442.3888416 310.7497872 450 268.5 450 C 226.25021279999999 450 192 442.3888416 192 433 Z"/></g><g transform="translate(-22,-14) scale(1,1)"><path fill="none" stroke="#000000" d="M 192 433 C 192 423.6111584 226.25021279999999 416 268.5 416 C 310.7497872 416 345 423.6111584 345 433 C 345 442.3888416 310.7497872 450 268.5 450 C 226.25021279999999 450 192 442.3888416 192 433 Z" stroke-miterlimit="10"/></g><g transform="translate(-22,-14) scale(1,1)"><g><path fill="none" stroke="none"/><text fill="#000000" stroke="none" font-family="Arial" font-size="13px" font-style="normal" font-weight="bold" text-decoration="none" x="222" y="440">Create Subtopic</text></g></g><g transform="translate(-22,-14) scale(1,1)"><path fill="none" stroke="#000000" d="M 280 415 L 344 323" stroke-miterlimit="10"/></g><g transform="translate(-22,-14) scale(1,1)"><path fill="#ffffff" stroke="none" d="M 32 96 L 120 96 L 130 106 L 130 144 L 32 144 L 32 96"/></g><g transform="translate(-22,-14) scale(1,1)"><path fill="none" stroke="#000000" d="M 32 96 L 120 96 L 130 106 L 130 144 L 32 144 L 32 96 L 32 96" stroke-miterlimit="10"/></g><g transform="translate(-22,-14) scale(1,1)"><path fill="none" stroke="#000000" d="M 120 96 L 120 106 L 130 106 L 120 96" stroke-miterlimit="10"/></g><g transform="translate(-22,-14) scale(1,1)"><g><path fill="none" stroke="none"/><text fill="#000000" stroke="none" font-family="Arial" font-size="13px" font-style="normal" font-weight="normal" text-decoration="none" x="37" y="114">Not sure yet</text></g></g><g transform="translate(-22,-14) scale(1,1)"><path fill="none" stroke="#000000" d="M 122 207 L 93 146" stroke-miterlimit="10" stroke-dasharray="3"/></g></g></svg>