<svg version="1.1" xmlns="http://www.w3.org/2000/svg" xmlns:xlink="http://www.w3.org/1999/xlink" width="982" height="527"><defs/><g><g transform="translate(-6,-174) scale(1,1)"><path fill="#C0C0C0" stroke="none" d="M 353.5 450.5 C 353.5 444.1487248 358.6487248 439 365 439 C 371.3512752 439 376.5 444.1487248 376.5 450.5 C 376.5 456.8512752 371.3512752 462 365 462 C 358.6487248 462 353.5 456.8512752 353.5 450.5 Z" opacity="0.2"/></g><g transform="translate(-6,-174) scale(1,1)"><path fill="#ffffff" stroke="none" d="M 346.5 443.5 C 346.5 437.1487248 351.6487248 432 358 432 C 364.3512752 432 369.5 437.1487248 369.5 443.5 C 369.5 449.8512752 364.3512752 455 358 455 C 351.6487248 455 346.5 449.8512752 346.5 443.5 Z"/></g><g transform="translate(-6,-174) scale(1,1)"><path fill="none" stroke="#000000" d="M 346.5 443.5 C 346.5 437.1487248 351.6487248 432 358 432 C 364.3512752 432 369.5 437.1487248 369.5 443.5 C 369.5 449.8512752 364.3512752 455 358 455 C 351.6487248 455 346.5 449.8512752 346.5 443.5 Z" stroke-miterlimit="10"/></g><g transform="translate(-6,-174) scale(1,1)"><path fill="none" stroke="#000000" d="M 224 480 L 492 480" stroke-miterlimit="10"/></g><g transform="translate(-6,-174) scale(1,1)"><g><path fill="none" stroke="none"/><text fill="#000000" stroke="none" font-family="Arial" font-size="13px" font-style="normal" font-weight="bold" text-decoration="none" x="320" y="474.5">TopicService</text></g></g><g transform="translate(-6,-174) scale(1,1)"><g><path fill="none" stroke="none"/><text fill="#000000" stroke="none" font-family="Arial" font-size="13px" font-style="normal" font-weight="normal" text-decoration="none" x="229" y="497.5">+addTopic(name: String)</text></g></g><g transform="translate(-6,-174) scale(1,1)"><g><path fill="none" stroke="none"/><text fill="#000000" stroke="none" font-family="Arial" font-size="13px" font-style="normal" font-weight="normal" text-decoration="none" x="229" y="512.5">+addSubtopic(subTopic: String, topic: Topic)</text></g></g><g transform="translate(-6,-174) scale(1,1)"><g><path fill="none" stroke="none"/><text fill="#000000" stroke="none" font-family="Arial" font-size="13px" font-style="normal" font-weight="normal" text-decoration="none" x="229" y="527.5">+getTopics(): List&lt;Topic&gt;</text></g></g><g transform="translate(-6,-174) scale(1,1)"><path fill="#C0C0C0" stroke="none" d="M 411.5 250 C 411.5 239.5065888 420.0065888 231 430.5 231 C 440.9934112 231 449.5 239.5065888 449.5 250 C 449.5 260.4934112 440.9934112 269 430.5 269 C 420.0065888 269 411.5 260.4934112 411.5 250 Z" opacity="0.2"/></g><g transform="translate(-6,-174) scale(1,1)"><path fill="#ffffff" stroke="none" d="M 404.5 243 C 404.5 232.5065888 413.0065888 224 423.5 224 C 433.9934112 224 442.5 232.5065888 442.5 243 C 442.5 253.4934112 433.9934112 262 423.5 262 C 413.0065888 262 404.5 253.4934112 404.5 243 Z"/></g><g transform="translate(-6,-174) scale(1,1)"><path fill="none" stroke="#000000" d="M 404.5 243 C 404.5 232.5065888 413.0065888 224 423.5 224 C 433.9934112 224 442.5 232.5065888 442.5 243 C 442.5 253.4934112 433.9934112 262 423.5 262 C 413.0065888 262 404.5 253.4934112 404.5 243 Z" stroke-miterlimit="10"/></g><g transform="translate(-6,-174) scale(1,1)"><path fill="none" stroke="#000000" d="M 288 287 L 559 287" stroke-miterlimit="10"/></g><g transform="translate(-6,-174) scale(1,1)"><g><path fill="none" stroke="none"/><text fill="#000000" stroke="none" font-family="Arial" font-size="13px" font-style="normal" font-weight="bold" text-decoration="none" x="406.5" y="281.5">Study</text></g></g><g transform="translate(-6,-174) scale(1,1)"><g><path fill="none" stroke="none"/><text fill="#000000" stroke="none" font-family="Arial" font-size="13px" font-style="normal" font-weight="normal" text-decoration="none" x="293" y="304.5">+getStartTime(): DateTime</text></g></g><g transform="translate(-6,-174) scale(1,1)"><g><path fill="none" stroke="none"/><text fill="#000000" stroke="none" font-family="Arial" font-size="13px" font-style="normal" font-weight="normal" text-decoration="none" x="293" y="319.5">+getEndTime(): DateTime</text></g></g><g transform="translate(-6,-174) scale(1,1)"><g><path fill="none" stroke="none"/><text fill="#000000" stroke="none" font-family="Arial" font-size="13px" font-style="normal" font-weight="normal" text-decoration="none" x="293" y="334.5">+getRating(): Rating</text></g></g><g transform="translate(-6,-174) scale(1,1)"><g><path fill="none" stroke="none"/><text fill="#000000" stroke="none" font-family="Arial" font-size="13px" font-style="normal" font-weight="normal" text-decoration="none" x="293" y="349.5">+finishStudy(rating: Rating, comment: String)</text></g></g><g transform="translate(-6,-174) scale(1,1)"><g><path fill="none" stroke="none"/><text fill="#000000" stroke="none" font-family="Arial" font-size="13px" font-style="normal" font-weight="normal" text-decoration="none" x="293" y="364.5">+getComment(): String</text></g></g><g transform="translate(-6,-174) scale(1,1)"><g><path fill="none" stroke="none"/><text fill="#000000" stroke="none" font-family="Arial" font-size="13px" font-style="normal" font-weight="normal" text-decoration="none" x="293" y="379.5">+getTopic(): Topic</text></g></g><g transform="translate(-6,-174) scale(1,1)"><path fill="none" stroke="#000000" d="M 829.8148681658301 205.44351686673008 A 11.5 11.5 0 0 1 820.1851318341699 184.55648313326992" stroke-miterlimit="10"/></g><g transform="translate(-6,-174) scale(1,1)"><path fill="none" stroke="#000000" d="M 832.794111274367 203.45587543917165 A 11.5 11.5 0 0 1 817.205888725633 186.54412456082835" stroke-miterlimit="10"/></g><g transform="translate(-6,-174) scale(1,1)"><path fill="none" stroke="#000000" d="M 836.467387385596 195.8654631989129 A 11.5 11.5 0 0 1 813.532612614404 194.1345368010871" stroke-miterlimit="10"/></g><g transform="translate(-6,-174) scale(1,1)"><path fill="none" stroke="#000000" d="M 672 232 L 978 232" stroke-miterlimit="10"/></g><g transform="translate(-6,-174) scale(1,1)"><g><path fill="none" stroke="none"/><text fill="#000000" stroke="none" font-family="Arial" font-size="13px" font-style="normal" font-weight="bold" text-decoration="none" x="809" y="226.5">Topic</text></g></g><g transform="translate(-6,-174) scale(1,1)"><g><path fill="none" stroke="none"/><text fill="#000000" stroke="none" font-family="Arial" font-size="13px" font-style="normal" font-weight="normal" text-decoration="none" x="677" y="249.5">+getName(): String</text></g></g><g transform="translate(-6,-174) scale(1,1)"><g><path fill="none" stroke="none"/><text fill="#000000" stroke="none" font-family="Arial" font-size="13px" font-style="normal" font-weight="normal" text-decoration="none" x="677" y="264.5">+getSubTopics(): List&lt;Topic&gt;</text></g></g><g transform="translate(-6,-174) scale(1,1)"><g><path fill="none" stroke="none"/><text fill="#000000" stroke="none" font-family="Arial" font-size="13px" font-style="normal" font-weight="normal" text-decoration="none" x="677" y="279.5">+getSchedule(): ArrayList&lt;DateTime&gt;</text></g></g><g transform="translate(-6,-174) scale(1,1)"><g><path fill="none" stroke="none"/><text fill="#000000" stroke="none" font-family="Arial" font-size="13px" font-style="normal" font-weight="normal" text-decoration="none" x="677" y="294.5">+getStudies(): ArrayList&lt;Study&gt;</text></g></g><g transform="translate(-6,-174) scale(1,1)"><rect fill="#C0C0C0" stroke="none" x="143" y="279" width="96" height="120" opacity="0.2"/></g><g transform="translate(-6,-174) scale(1,1)"><rect fill="#ffffff" stroke="none" x="136" y="272" width="96" height="120"/></g><g transform="translate(-6,-174) scale(1,1)"><path fill="none" stroke="#000000" d="M 136 272 L 232 272 L 232 392 L 136 392 L 136 272 Z Z" stroke-miterlimit="10"/></g><g transform="translate(-6,-174) scale(1,1)"><path fill="none" stroke="#000000" d="M 136 310 L 232 310" stroke-miterlimit="10"/></g><g transform="translate(-6,-174) scale(1,1)"><g><path fill="none" stroke="none"/><text fill="#000000" stroke="none" font-family="Arial" font-size="13px" font-style="normal" font-weight="normal" text-decoration="none" x="158" y="289.5">«ENUM»</text></g></g><g transform="translate(-6,-174) scale(1,1)"><g><path fill="none" stroke="none"/><text fill="#000000" stroke="none" font-family="Arial" font-size="13px" font-style="normal" font-weight="bold" text-decoration="none" x="165.5" y="304.5">Rating</text></g></g><g transform="translate(-6,-174) scale(1,1)"><g><path fill="none" stroke="none"/><text fill="#000000" stroke="none" font-family="Arial" font-size="13px" font-style="normal" font-weight="normal" text-decoration="none" x="141" y="327.5">+VERY_EASY</text></g></g><g transform="translate(-6,-174) scale(1,1)"><g><path fill="none" stroke="none"/><text fill="#000000" stroke="none" font-family="Arial" font-size="13px" font-style="normal" font-weight="normal" text-decoration="none" x="141" y="342.5">+EASY</text></g></g><g transform="translate(-6,-174) scale(1,1)"><g><path fill="none" stroke="none"/><text fill="#000000" stroke="none" font-family="Arial" font-size="13px" font-style="normal" font-weight="normal" text-decoration="none" x="141" y="357.5">+MEDIUM</text></g></g><g transform="translate(-6,-174) scale(1,1)"><g><path fill="none" stroke="none"/><text fill="#000000" stroke="none" font-family="Arial" font-size="13px" font-style="normal" font-weight="normal" text-decoration="none" x="141" y="372.5">+HARD</text></g></g><g transform="translate(-6,-174) scale(1,1)"><g><path fill="none" stroke="none"/><text fill="#000000" stroke="none" font-family="Arial" font-size="13px" font-style="normal" font-weight="normal" text-decoration="none" x="141" y="387.5">+VERY_HARD</text></g></g><g transform="translate(-6,-174) scale(1,1)"><path fill="#C0C0C0" stroke="none" d="M 793.5 426.5 C 793.5 420.1487248 798.6487248 415 805 415 C 811.3512752 415 816.5 420.1487248 816.5 426.5 C 816.5 432.8512752 811.3512752 438 805 438 C 798.6487248 438 793.5 432.8512752 793.5 426.5 Z" opacity="0.2"/></g><g transform="translate(-6,-174) scale(1,1)"><path fill="#ffffff" stroke="none" d="M 786.5 419.5 C 786.5 413.1487248 791.6487248 408 798 408 C 804.3512752 408 809.5 413.1487248 809.5 419.5 C 809.5 425.8512752 804.3512752 431 798 431 C 791.6487248 431 786.5 425.8512752 786.5 419.5 Z"/></g><g transform="translate(-6,-174) scale(1,1)"><path fill="none" stroke="#000000" d="M 786.5 419.5 C 786.5 413.1487248 791.6487248 408 798 408 C 804.3512752 408 809.5 413.1487248 809.5 419.5 C 809.5 425.8512752 804.3512752 431 798 431 C 791.6487248 431 786.5 425.8512752 786.5 419.5 Z" stroke-miterlimit="10"/></g><g transform="translate(-6,-174) scale(1,1)"><path fill="none" stroke="#000000" d="M 624 456 L 972 456" stroke-miterlimit="10"/></g><g transform="translate(-6,-174) scale(1,1)"><g><path fill="none" stroke="none"/><text fill="#000000" stroke="none" font-family="Arial" font-size="13px" font-style="normal" font-weight="bold" text-decoration="none" x="747" y="450.5">SchedulerService</text></g></g><g transform="translate(-6,-174) scale(1,1)"><g><path fill="none" stroke="none"/><text fill="#000000" stroke="none" font-family="Arial" font-size="13px" font-style="normal" font-weight="normal" text-decoration="none" x="629" y="473.5">+getScheduleForTopic(topic: Topic): ArrayList&lt;DateTime&gt;</text></g></g><g transform="translate(-6,-174) scale(1,1)"><path fill="none" stroke="#000000" d="M 632.6700355535866 642.2614948243317 A 11.5 11.5 0 0 1 637.3299644464134 619.7385051756683" stroke-miterlimit="10"/></g><g transform="translate(-6,-174) scale(1,1)"><path fill="none" stroke="#000000" d="M 552 668 L 719 668" stroke-miterlimit="10"/></g><g transform="translate(-6,-174) scale(1,1)"><g><path fill="none" stroke="none"/><text fill="#000000" stroke="none" font-family="Arial" font-size="13px" font-style="normal" font-weight="bold" text-decoration="none" x="573.5" y="662.5">TopicCreationService</text></g></g><g transform="translate(-6,-174) scale(1,1)"><g><path fill="none" stroke="none"/><text fill="#000000" stroke="none" font-family="Arial" font-size="13px" font-style="normal" font-weight="normal" text-decoration="none" x="557" y="685.5">+createTopic(name: String)</text></g></g><g transform="translate(-6,-174) scale(1,1)"><path fill="none" stroke="#000000" d="M 351.53972378018386 631.955023018318 A 11.5 11.5 0 0 1 374.46027621981614 630.044976981682" stroke-miterlimit="10"/></g><g transform="translate(-6,-174) scale(1,1)"><path fill="none" stroke="#000000" d="M 220 668 L 507 668" stroke-miterlimit="10"/></g><g transform="translate(-6,-174) scale(1,1)"><g><path fill="none" stroke="none"/><text fill="#000000" stroke="none" font-family="Arial" font-size="13px" font-style="normal" font-weight="bold" text-decoration="none" x="290" y="662.5">SubTopicCreationService</text></g></g><g transform="translate(-6,-174) scale(1,1)"><g><path fill="none" stroke="none"/><text fill="#000000" stroke="none" font-family="Arial" font-size="13px" font-style="normal" font-weight="normal" text-decoration="none" x="225" y="685.5">+createSubTopic(subTopic: String, topic: Topic)</text></g></g><g transform="translate(-6,-174) scale(1,1)"><path fill="none" stroke="#000000" d="M 92.54857863500764 619.7643187437851 A 11.5 11.5 0 0 1 97.45142136499236 642.2356812562149" stroke-miterlimit="10"/></g><g transform="translate(-6,-174) scale(1,1)"><path fill="none" stroke="#000000" d="M 16 668 L 175 668" stroke-miterlimit="10"/></g><g transform="translate(-6,-174) scale(1,1)"><g><path fill="none" stroke="none"/><text fill="#000000" stroke="none" font-family="Arial" font-size="13px" font-style="normal" font-weight="bold" text-decoration="none" x="40" y="662.5">TopicQueryService</text></g></g><g transform="translate(-6,-174) scale(1,1)"><g><path fill="none" stroke="none"/><text fill="#000000" stroke="none" font-family="Arial" font-size="13px" font-style="normal" font-weight="normal" text-decoration="none" x="21" y="685.5">+getTopics(): List&lt;Topic&gt;</text></g></g><g transform="translate(-6,-174) scale(1,1)"><path fill="none" stroke="#000000" d="M 441 534 L 624 628.7241379310345" stroke-miterlimit="10"/></g><g transform="translate(-6,-174) scale(1,1)"><path fill="none" stroke="#000000" d="M 360 534 L 362.0833333333333 620" stroke-miterlimit="10"/></g><g transform="translate(-6,-174) scale(1,1)"><path fill="none" stroke="#000000" d="M 279 534 L 107 628.3818181818182" stroke-miterlimit="10"/></g><g transform="translate(-6,-174) scale(1,1)"><path fill="none" stroke="#000000" d="M 287 320 L 233 326" stroke-miterlimit="10" stroke-dasharray="3"/></g><g transform="translate(-6,-174) scale(1,1)"><path fill="none" stroke="#000000" d="M 242.63565377193316 320.693949077946 L 233 326 L 243.5653807116052 329.06149153499416" stroke-miterlimit="10"/></g><g transform="translate(-6,-174) scale(1,1)"><path fill="none" stroke="#000000" d="M 560 283 L 813.5 200.30194805194805" stroke-miterlimit="10"/></g><g transform="translate(-6,-174) scale(1,1)"><path fill="none" stroke="#000000" d="M 457 431 L 813.5 205.6" stroke-miterlimit="10"/></g><g transform="translate(-6,-174) scale(1,1)"><path fill="none" stroke="#000000" d="M 803 407 L 824.0943396226415 207" stroke-miterlimit="10"/></g></g></svg>